<svg xmlns="http://www.w3.org/2000/svg" viewBox="0 0 744.09 1052.4"><g fill-rule="evenodd"><g stroke-linejoin="round" stroke-width="2.2"><path d="m393.01 326.79l-0.514 3.5976c4.9795 0.84747 8.4204 5.4867 7.7016 10.518-0.71875 5.0308-5.3175 8.4956-10.335 7.9139l-1.2999 9.0984c4.9795 0.84744 8.4204 5.4867 7.7016 10.518-0.71875 5.0308-5.3175 8.4956-10.335 7.9139l-1.2552 8.7856c4.9796 0.84665 8.4241 5.4607 7.7054 10.491-0.71875 5.0308-5.3211 8.5209-10.339 7.94l-1.2999 9.0984c4.9796 0.84665 8.4241 5.4607 7.7054 10.491-0.71875 5.0308-5.3175 8.4956-10.335 7.9139l-1.2999 9.0984c4.9795 0.84747 8.4204 5.4867 7.7016 10.518-0.71875 5.0308-5.3175 8.4956-10.335 7.9139l-1.2999 9.0984c4.9796 0.84665 8.4241 5.4607 7.7054 10.491-0.71875 5.0308-5.3211 8.5209-10.339 7.94l-1.2999 9.0984c4.9796 0.84662 8.4241 5.4606 7.7054 10.491-0.71878 5.0308-5.3175 8.4957-10.335 7.9139l-1.2999 9.0984c4.9796 0.84747 8.4204 5.4868 7.7017 10.518-0.71878 5.0308-5.3175 8.4956-10.335 7.9139l-1.2999 9.0984c4.9796 0.84668 8.4241 5.4606 7.7054 10.491-0.71878 5.0308-5.3211 8.5209-10.339 7.94l-1.2999 9.0984c4.9796 0.84662 8.4241 5.4606 7.7054 10.492-0.71875 5.0308-5.3175 8.4956-10.335 7.9139l-1.2366 8.6552c4.9795 0.84747 8.4204 5.4868 7.7016 10.518-0.71878 5.0308-5.3175 8.4956-10.335 7.9139l-1.2552 8.7855c4.9796 0.84668 8.4241 5.4607 7.7054 10.492-0.71878 5.0308-5.3211 8.5209-10.339 7.94l-1.2999 9.0984c4.9796 0.84668 8.4241 5.4606 7.7054 10.491-0.71878 5.0308-5.3175 8.4957-10.335 7.9139l-0.6406 4.4841 8.6031 1.2291c1.6301-3.7859 5.5005-6.2637 9.7726-5.6533 4.2722 0.61041 7.3138 4.0757 7.8246 8.1675l9.9326 1.4191c1.6301-3.7859 5.5004-6.2637 9.7726-5.6533 4.2722 0.61035 7.2938 4.0729 7.7985 8.1638l9.6198 1.3745c1.6361-3.7851 5.5265-6.26 9.7987-5.6496 4.2722 0.61035 7.2938 4.0728 7.7985 8.1638l9.9326 1.4191c1.6301-3.7859 5.5004-6.2637 9.7726-5.6533 4.2722 0.61035 7.3139 4.0757 7.8246 8.1675l9.9326 1.4191c1.6301-3.7859 5.5004-6.2637 9.7726-5.6533 4.2722 0.61035 7.2938 4.0728 7.7985 8.1637l9.9326 1.4191c1.6361-3.785 5.5266-6.26 9.7986-5.6495 4.2722 0.61035 7.2938 4.0728 7.7985 8.1638l9.9327 1.4191c1.6301-3.7859 5.5004-6.2637 9.7726-5.6533 4.2722 0.61035 7.3138 4.0757 7.8246 8.1675l9.9326 1.4191c1.6301-3.7859 5.5005-6.2637 9.7726-5.6533 4.2722 0.61035 7.3138 4.0757 7.8246 8.1674l9.9066 1.4154c1.636-3.785 5.5265-6.26 9.7986-5.6496 4.2722 0.61041 7.2938 4.0729 7.7985 8.1638l9.9326 1.4191c1.6301-3.7859 5.5004-6.2637 9.7726-5.6533 4.2722 0.61035 7.3139 4.0757 7.8246 8.1674l8.1078 1.1584 0.6816-4.7708c-4.1403-1.4396-6.9038-5.4887-6.2604-9.9924 0.64349-4.5037 4.4303-7.6169 8.8081-7.8395l1.3818-9.6719c-4.1396-1.4444-6.9001-5.5147-6.2566-10.018 0.64349-4.5037 4.4303-7.6169 8.8081-7.8395l1.3372-9.3591c-4.1403-1.4396-6.9038-5.4886-6.2604-9.9923 0.64349-4.5037 4.4334-7.6382 8.8118-7.8655l1.3185-9.2288c-4.1403-1.4396-6.9038-5.4887-6.2604-9.9924 0.64349-4.5036 4.4303-7.6169 8.8081-7.8395l1.3818-9.6719c-4.1396-1.4444-6.9001-5.5147-6.2566-10.018 0.64349-4.5037 4.4303-7.6169 8.8081-7.8395l1.3818-9.6719c-4.1403-1.4396-6.9038-5.4887-6.2604-9.9924 0.64349-4.5037 4.4334-7.6381 8.8118-7.8655l1.3819-9.6719c-4.1403-1.4396-6.9038-5.4887-6.2604-9.9924 0.64349-4.5036 4.4303-7.6168 8.808-7.8394l1.3819-9.6719c-4.1396-1.4444-6.9001-5.5148-6.2566-10.018 0.64349-4.5037 4.4303-7.6169 8.808-7.8394l1.3819-9.6719c-4.1403-1.4396-6.9038-5.4887-6.2604-9.9924 0.64349-4.5036 4.4334-7.6381 8.8118-7.8655l1.3819-9.6719c-4.1403-1.4396-6.9038-5.4887-6.2604-9.9924 0.64349-4.5036 4.4303-7.6169 8.808-7.8394l1.3819-9.6719c-4.1396-1.4444-6.9001-5.5148-6.2566-10.018 0.64343-4.5037 4.4303-7.6169 8.808-7.8395l1.3372-9.3591c-4.1403-1.4396-6.9038-5.4886-6.2603-9.9924 0.64343-4.5036 4.4333-7.6381 8.8118-7.8655l1.3818-9.6719c-4.1403-1.4396-6.9038-5.4887-6.2603-9.9923 0.64343-4.5037 4.4333-7.6382 8.8118-7.8655l0.555-3.8844-7.5342-1.0765c-0.9212 4.8921-5.4972 8.286-10.473 7.575-4.9756-0.71085-8.3934-5.2468-7.9065-10.201l-9.1505-1.3074c-0.91992 4.8922-5.4712 8.2897-10.447 7.5788-4.9755-0.71091-8.4181-5.2504-7.9325-10.205l-9.1506-1.3074c-0.91992 4.8923-5.4711 8.2897-10.447 7.5788-4.9756-0.71091-8.3934-5.2469-7.9065-10.201l-9.1505-1.3073c-0.92126 4.892-5.4972 8.2859-10.473 7.575-4.9756-0.71085-8.3933-5.2468-7.9065-10.201l-9.1505-1.3073c-0.91992 4.8922-5.4711 8.2896-10.447 7.5787-4.9756-0.71088-8.4181-5.2504-7.9326-10.205l-9.1505-1.3074c-0.91992 4.8922-5.4712 8.2896-10.447 7.5788-4.9756-0.71088-8.3933-5.2469-7.9065-10.201l-9.1505-1.3074c-0.91907 4.8929-5.4962 8.286-10.473 7.575-4.9765-0.711-8.3944-5.2464-7.9065-10.201l-9.1505-1.3073c-0.91907 4.8928-5.4702 8.2897-10.447 7.5787-4.9765-0.711-8.4204-5.2501-7.9326-10.205l-8.8377-1.2626c-0.91907 4.8928-5.4702 8.2897-10.447 7.5787-4.9765-0.711-8.4204-5.2501-7.9326-10.205l-9.1245-1.3037c-0.9191 4.8929-5.4963 8.286-10.473 7.575-4.9765-0.711-8.3944-5.2464-7.9065-10.201l-8.3945-1.1994v3.1e-5z"/><path fill="#f9f3c8" d="m392.57 326.56l-0.5097 3.5674c4.9377 0.84033 8.3496 5.4406 7.6369 10.429-0.71271 4.9885-5.2728 8.4242-10.248 7.8474l-1.289 9.0219c4.9377 0.84033 8.3496 5.4406 7.6369 10.429-0.71274 4.9885-5.2728 8.4242-10.248 7.8474l-1.2447 8.7117c4.9378 0.83951 8.3533 5.4148 7.6406 10.403-0.71271 4.9885-5.2764 8.4493-10.252 7.8733l-1.289 9.0219c4.9378 0.83954 8.3533 5.4148 7.6406 10.403-0.71271 4.9885-5.2728 8.4242-10.248 7.8474l-1.289 9.0219c4.9377 0.84033 8.3496 5.4406 7.6369 10.429-0.71274 4.9885-5.2728 8.4242-10.248 7.8474l-1.289 9.0219c4.9378 0.83951 8.3533 5.4147 7.6406 10.403-0.71274 4.9885-5.2764 8.4493-10.252 7.8733l-1.289 9.0219c4.9378 0.83951 8.3534 5.4147 7.6406 10.403-0.71271 4.9885-5.2728 8.4242-10.248 7.8474l-1.289 9.022c4.9377 0.84027 8.3496 5.4406 7.6369 10.429-0.71271 4.9885-5.2728 8.4242-10.248 7.8474l-1.289 9.022c4.9378 0.83948 8.3533 5.4147 7.6406 10.403-0.71274 4.9885-5.2764 8.4493-10.252 7.8733l-1.289 9.0219c4.9378 0.83954 8.3533 5.4148 7.6406 10.403-0.71274 4.9885-5.2728 8.4243-10.248 7.8475l-1.2262 8.5825c4.9377 0.84033 8.3496 5.4406 7.6369 10.429-0.71271 4.9885-5.2728 8.4243-10.248 7.8474l-1.2447 8.7117c4.9378 0.83954 8.3534 5.4148 7.6406 10.403-0.71271 4.9885-5.2764 8.4493-10.252 7.8733l-1.289 9.022c4.9378 0.83954 8.3533 5.4147 7.6406 10.403-0.71274 4.9885-5.2729 8.4242-10.248 7.8474l-0.6353 4.4464 8.5308 1.2188c1.6164-3.7541 5.4542-6.2111 9.6905-5.6058 4.2363 0.60529 7.2524 4.0415 7.7588 8.0989l9.8492 1.4072c1.6164-3.7541 5.4542-6.2111 9.6905-5.6058 4.2363 0.60522 7.2325 4.0386 7.733 8.0952l9.539 1.3629c1.6223-3.7532 5.4801-6.2073 9.7163-5.6021 4.2363 0.60522 7.2325 4.0386 7.733 8.0952l9.8492 1.4072c1.6164-3.7541 5.4542-6.211 9.6905-5.6058 4.2362 0.60522 7.2524 4.0414 7.7588 8.0988l9.8492 1.4072c1.6164-3.7541 5.4542-6.2111 9.6905-5.6058 4.2363 0.60529 7.2325 4.0386 7.733 8.0952l9.8492 1.4072c1.6224-3.7533 5.48-6.2074 9.7164-5.6021 4.2362 0.60522 7.2324 4.0386 7.7329 8.0951l9.8492 1.4072c1.6164-3.7541 5.4542-6.2111 9.6905-5.6058 4.2363 0.60522 7.2524 4.0414 7.7588 8.0988l9.8492 1.4072c1.6164-3.7541 5.4542-6.211 9.6904-5.6058 4.2363 0.60522 7.2524 4.0414 7.7588 8.0988l9.8234 1.4035c1.6223-3.7532 5.48-6.2073 9.7163-5.6021 4.2363 0.60529 7.2325 4.0386 7.733 8.0952l9.8492 1.4072c1.6164-3.7541 5.4542-6.2111 9.6905-5.6058 4.2363 0.60529 7.2524 4.0414 7.7588 8.0989l8.0396 1.1486 0.6759-4.7307c-4.1055-1.4274-6.8458-5.4426-6.2078-9.9084 0.63806-4.4658 4.3931-7.5529 8.7341-7.7736l1.3702-9.5906c-4.1048-1.4322-6.8421-5.4684-6.204-9.9343 0.63806-4.4658 4.3931-7.5529 8.734-7.7736l1.3259-9.2805c-4.1055-1.4275-6.8458-5.4426-6.2077-9.9084 0.63806-4.4658 4.3961-7.5739 8.7377-7.7994l1.3075-9.1512c-4.1055-1.4274-6.8458-5.4426-6.2078-9.9083 0.63806-4.4658 4.3931-7.5529 8.734-7.7736l1.3703-9.5906c-4.1048-1.4322-6.8421-5.4684-6.204-9.9343 0.638-4.4658 4.3931-7.5529 8.734-7.7736l1.3702-9.5906c-4.1055-1.4275-6.8458-5.4426-6.2078-9.9084 0.63806-4.4658 4.3961-7.574 8.7377-7.7994l1.3702-9.5907c-4.1055-1.4274-6.8458-5.4425-6.2077-9.9083 0.63806-4.4658 4.3931-7.5529 8.734-7.7736l1.3702-9.5907c-4.1047-1.4322-6.842-5.4684-6.204-9.9342 0.63806-4.4658 4.3931-7.5529 8.7341-7.7736l1.3702-9.5906c-4.1055-1.4275-6.8458-5.4426-6.2078-9.9084 0.63806-4.4658 4.3961-7.5739 8.7377-7.7994l1.3702-9.5906c-4.1055-1.4275-6.8458-5.4426-6.2078-9.9084 0.63806-4.4658 4.3931-7.5529 8.7341-7.7736l1.3702-9.5907c-4.1048-1.4322-6.8421-5.4684-6.204-9.9342 0.63806-4.4658 4.3931-7.5529 8.734-7.7736l1.3259-9.2805c-4.1055-1.4275-6.8458-5.4425-6.2077-9.9084 0.638-4.4658 4.3961-7.574 8.7377-7.7994l1.3703-9.5907c-4.1055-1.4275-6.8458-5.4426-6.2078-9.9084 0.63806-4.4658 4.3961-7.5739 8.7377-7.7994l0.5503-3.8517-7.4709-1.0674c-0.91345 4.8509-5.451 8.2163-10.385 7.5114-4.9338-0.70493-8.3228-5.2028-7.84-10.115l-9.0737-1.2964c-0.91217 4.8511-5.4252 8.2199-10.359 7.515-4.9337-0.7049-8.3474-5.2062-7.8658-10.119l-9.0737-1.2964c-0.91217 4.8511-5.4252 8.2199-10.359 7.515-4.9337-0.7049-8.3228-5.2027-7.84-10.115l-9.0737-1.2964c-0.91345 4.8509-5.451 8.2162-10.385 7.5114-4.9338-0.7049-8.3228-5.2027-7.84-10.115l-9.0736-1.2964c-0.91223 4.8511-5.4252 8.22-10.359 7.515-4.9337-0.7049-8.3473-5.2062-7.8658-10.119l-9.0736-1.2964c-0.91223 4.8511-5.4252 8.2199-10.359 7.515-4.9337-0.7049-8.3228-5.2028-7.84-10.115l-9.0736-1.2964c-0.91138 4.8518-5.4501 8.2164-10.385 7.5114-4.9347-0.70505-8.3238-5.2023-7.84-10.115l-9.0736-1.2964c-0.91138 4.8518-5.4243 8.2201-10.359 7.515-4.9347-0.70505-8.3497-5.206-7.8659-10.119l-8.7634-1.252c-0.91135 4.8518-5.4242 8.2201-10.359 7.515-4.9347-0.70505-8.3496-5.206-7.8659-10.119l-9.0478-1.2927c-0.91135 4.8518-5.4501 8.2164-10.385 7.5114-4.9347-0.70505-8.3238-5.2023-7.8401-10.115l-8.324-1.1893z"/><rect width="247.49" height="319.23" x="453.72" y="286.75" fill="#ebe7d6" transform="rotate(8.1312)"/><path d="m486.89 420.29c-70.235-10.035-135.38 38.824-145.42 109.06-10.035 70.235 38.824 135.38 109.06 145.42 70.235 10.035 135.38-38.824 145.42-109.06 10.035-70.234-38.824-135.38-109.06-145.42zm-0.506 3.5416c68.275 9.7546 115.78 73.095 106.02 141.37-9.7546 68.274-73.094 115.78-141.37 106.02-68.274-9.7546-115.78-73.094-106.02-141.37 9.7546-68.274 73.095-115.78 141.37-106.02z" opacity=".335"/><path d="m489.26 386.81c-89.835-12.835-173.15 49.672-185.98 139.51-12.835 89.835 49.646 173.15 139.48 185.98 89.835 12.835 173.17-49.642 186.01-139.48 12.835-89.835-49.668-173.18-139.5-186.01zm-0.506 3.5416c87.875 12.555 149 94.084 136.44 181.96-12.555 87.875-94.058 149-181.93 136.44-87.875-12.555-149-94.058-136.44-181.93 12.555-87.875 94.062-149.03 181.94-136.47z" opacity=".335"/></g><path d="m295.7 453.48c-6.3612-0.24124-13.357 0.48908-20.56 2.6776-10.541 3.2027-20.651 12.288-31.08 23.047-2.314 2.3874-4.6275 4.8536-6.9809 7.3635-1.3378 1.4242-2.6617 2.7676-4.0164 4.2077l18.743-5.4509c-0.53845 0.52969-0.99039 1.0841-1.5301 1.6257l4.399-1.3388c8.5651-8.3368 16.989-15.037 25.724-17.692 14.413-4.3793 27.461-2.742 37.009 0l13.197-3.8252c-6.1e-5 3.1e-5 -1.6135-0.24997-3.347-0.57376l1.3388-0.4781c0 3.1e-5 -13.813-8.8392-32.896-9.5629zm-45.424 33.47l-18.456 5.2596c-14.515 15.377-30.177 30.852-48.867 36.53-20.246 6.1516-37.17-0.90369-56.804-6.5984l-19.7 5.5465c30.878 3.6462 52.042 20.183 79.755 11.762 25.341-7.6996 45.134-33.496 64.072-52.5zm-143.83 40.738c-0.11393-0.013428-0.26836 0.013123-0.38251 0l19.604-5.7377c-3.5908-1.0443-7.277-1.9197-11.093-2.7733-1.1949-0.26404-2.4118-0.53101-3.6339-0.76502-13.294-2.5743-28.275-3.2872-46.572 1.7213-14.359 3.9308-23.271 10.08-30.506 16.926l2.6776 10.806 4.1121-1.1476c6.9744-6.0308 15.946-11.256 28.976-14.822 12.74-3.4876 23.79-4.0916 33.853-3.347l2.9645-0.8607h-1.5e-5zm202.06-31.749c-6.3612-0.24121-13.262 0.39343-20.465 2.582-10.541 3.2027-20.651 12.288-31.08 23.047-2.3141 2.3874-4.6275 4.9492-6.9809 7.4591-1.3377 1.4242-2.6617 2.7676-4.0164 4.2077l18.743-5.4509c-0.53845 0.52966-1.086 0.98846-1.6257 1.53l4.399-1.2432c8.5651-8.3368 17.085-15.133 25.82-17.787 14.413-4.3793 27.461-2.742 37.009 0l13.197-3.7295c-6.1e-5 -3.1e-5 -1.6135-0.34561-3.347-0.6694l1.3388-0.3825c-3.1e-5 -3.1e-5 -13.908-8.8392-32.992-9.563zm-45.424 33.375l-18.456 5.2596c-14.515 15.377-30.082 30.852-48.771 36.53-20.246 6.1516-37.17-0.90369-56.804-6.5984l-19.795 5.6421c30.878 3.6462 52.138 20.183 79.851 11.762 25.341-7.6996 45.038-33.591 63.976-52.596zm-143.83 40.834c-0.11394-0.013428-0.17274-0.08252-0.28688-0.095581l19.604-5.6422c-3.5908-1.0442-7.3726-2.0153-11.189-2.8688-1.1949-0.26404-2.4118-0.53107-3.6339-0.76508-13.294-2.5743-28.18-3.1916-46.476 1.817-15.555 4.2582-24.968 10.996-32.418 18.552l2.6776 10.615c0.3808-0.38538 0.56239-0.86322 0.95629-1.2432l4.9727-1.4344c6.9744-6.0309 16.042-11.16 29.071-14.727 12.74-3.4876 23.79-4.1872 33.853-3.4427l2.8689-0.7651zm202.16-31.845c-6.3612-0.24121-13.262 0.39356-20.465 2.582-10.541 3.2027-20.651 12.288-31.08 23.047-2.314 2.3874-4.7231 4.9492-7.0765 7.4591-1.3378 1.4241-2.6617 2.7676-4.0164 4.2077l18.839-5.4509c-0.53842 0.52966-1.086 0.98852-1.6257 1.5301l4.399-1.2432c8.5651-8.3368 16.989-15.133 25.724-17.787 14.413-4.3793 27.556-2.7421 37.104 0l13.101-3.7296c-6.1e-5 -6.1e-5 -1.5178-0.34564-3.2514-0.66943l1.3388-0.3825c-3.1e-5 0-13.908-8.8392-32.992-9.563zm-45.424 33.375l-18.456 5.2596c-14.515 15.377-30.177 30.852-48.867 36.53-20.246 6.1517-37.074-0.90375-56.708-6.5984l-19.795 5.6422c30.878 3.6462 52.042 20.183 79.755 11.762 25.341-7.6997 45.134-33.591 64.072-52.596zm-143.83 40.834c-0.11397-0.013428-0.26837 0.013062-0.38252 0l19.7-5.7378c-3.5908-1.0442-7.3726-2.0153-11.189-2.8689-1.1949-0.2641-2.4118-0.43536-3.6339-0.66937-13.294-2.5745-28.18-3.2873-46.476 1.7213-16.669 4.563-26.69 11.836-34.331 20.082l2.7733 11.284c0.9969-1.092 1.6812-2.2936 2.7732-3.347l4.9727-1.4344c6.9744-6.0308 15.946-11.256 28.976-14.823 12.74-3.4875 23.79-4.0915 33.853-3.347l2.9645-0.8607zm202.16-31.845c-6.3612-0.24127-13.357 0.48908-20.56 2.6776-10.541 3.2027-20.556 12.288-30.984 23.047-2.3141 2.3875-4.7231 4.8536-7.0766 7.3635-1.3378 1.4242-2.6617 2.7676-4.0164 4.2077l18.839-5.4509c-0.53842 0.52972-1.086 1.0841-1.6257 1.6257l4.399-1.3388c8.5651-8.3369 16.989-15.037 25.724-17.692 14.413-4.3792 27.461-2.742 37.008 0l13.197-3.8251c-6.1e-5 0-1.6135-0.25-3.347-0.57379l1.3388-0.4781c-3.1e-5 0-13.813-8.8392-32.896-9.5629zm-45.424 33.47l-18.456 5.2596c-14.515 15.377-30.177 30.852-48.867 36.53-20.246 6.1516-37.074-0.90369-56.708-6.5984l-19.795 5.5464c30.878 3.6462 52.042 20.183 79.755 11.762 25.341-7.6997 45.134-33.496 64.072-52.5zm-143.83 40.738c-0.11392-0.013367-0.26837 0.013123-0.38251 0l19.604-5.7377c-3.5908-1.0442-7.277-1.9197-11.093-2.7732-1.1949-0.26404-2.4118-0.53101-3.6339-0.76502-13.294-2.5744-28.275-3.2873-46.572 1.7213-17.243 4.7202-27.465 12.339-35.192 20.943-0.32395 0.35925-0.64916 0.69147-0.95631 1.0519l2.9645 11.571c1.5522-1.8282 2.7009-3.8163 4.4946-5.5465l4.9727-1.4344c6.9744-6.0308 15.946-11.256 28.976-14.823 12.74-3.4874 23.79-4.0915 33.853-3.347l2.9645-0.8607z" opacity=".5"/></g></svg>